<svg width="64" height="64" viewBox="0 0 64 64" fill="none" xmlns="http://www.w3.org/2000/svg">
<path d="M25.9444 41.3L26.2042 41.75C26.7917 42.7675 27.6364 43.6127 28.6536 44.2006C29.6708 44.7886 30.8248 45.0988 31.9997 45.1H32.0003C33.1752 45.0988 34.3292 44.7886 35.3464 44.2006C36.3636 43.6127 37.2084 42.7675 37.7958 41.75L38.0556 41.3H37.536H26.464H25.9444ZM24.0112 28.0113C23.5343 28.3299 22.9736 28.5 22.4 28.5C21.6309 28.5 20.8933 28.1945 20.3494 27.6506C19.8055 27.1067 19.5 26.3691 19.5 25.6C19.5 25.0264 19.6701 24.4657 19.9887 23.9888C20.3074 23.5119 20.7603 23.1402 21.2902 22.9207C21.8201 22.7012 22.4032 22.6438 22.9658 22.7557C23.5283 22.8676 24.045 23.1438 24.4506 23.5494C24.8562 23.955 25.1324 24.4717 25.2443 25.0342C25.3562 25.5968 25.2988 26.1799 25.0793 26.7098C24.8598 27.2397 24.4881 27.6926 24.0112 28.0113ZM14.3884 5.64241C19.6015 2.15917 25.7303 0.3 32 0.3C36.1629 0.3 40.2851 1.11994 44.1311 2.71302C47.9771 4.30609 51.4717 6.6411 54.4153 9.58471C57.3589 12.5283 59.6939 16.0229 61.287 19.8689C62.8801 23.7149 63.7 27.8371 63.7 32C63.7 38.2697 61.8408 44.3985 58.3576 49.6116C54.8743 54.8246 49.9235 58.8877 44.1311 61.287C38.3387 63.6863 31.9648 64.314 25.8156 63.0909C19.6665 61.8677 14.0181 58.8486 9.58473 54.4153C5.1514 49.9819 2.13227 44.3335 0.909121 38.1843C-0.31403 32.0352 0.313735 25.6613 2.71303 19.8689C5.11233 14.0765 9.1754 9.12565 14.3884 5.64241ZM17.6107 53.535C21.87 56.381 26.8775 57.9 32 57.9C38.8691 57.9 45.4569 55.1712 50.3141 50.3141C55.1713 45.4569 57.9 38.8691 57.9 32C57.9 26.8775 56.381 21.87 53.5351 17.6107C50.6891 13.3515 46.6441 10.0318 41.9115 8.07152C37.1789 6.11121 31.9713 5.5983 26.9472 6.59766C21.9231 7.59702 17.3081 10.0638 13.6859 13.6859C10.0638 17.3081 7.59703 21.923 6.59767 26.9472C5.59832 31.9713 6.11122 37.1789 8.07153 41.9115C10.0318 46.6441 13.3515 50.6891 17.6107 53.535ZM22.4 35.5H41.6C42.3691 35.5 43.1068 35.8055 43.6506 36.3494C44.1945 36.8932 44.5 37.6309 44.5 38.4C44.5 41.7152 43.183 44.8946 40.8388 47.2388C38.4946 49.583 35.3152 50.9 32 50.9C28.6848 50.9 25.5054 49.583 23.1612 47.2388C20.817 44.8946 19.5 41.7152 19.5 38.4C19.5 37.6309 19.8055 36.8932 20.3494 36.3494C20.8933 35.8055 21.6309 35.5 22.4 35.5ZM39.9889 23.1887C40.4658 22.8701 41.0264 22.7 41.6 22.7C42.3691 22.7 43.1068 23.0055 43.6506 23.5494C44.1945 24.0932 44.5 24.8309 44.5 25.6C44.5 26.1736 44.3299 26.7342 44.0113 27.2111C43.6926 27.688 43.2397 28.0597 42.7098 28.2792C42.1799 28.4987 41.5968 28.5562 41.0342 28.4443C40.4717 28.3324 39.955 28.0562 39.5494 27.6506C39.1438 27.245 38.8676 26.7283 38.7557 26.1658C38.6438 25.6032 38.7013 25.0201 38.9208 24.4902C39.1403 23.9603 39.512 23.5074 39.9889 23.1887Z" fill="#2B2A2A" stroke="#F6F6F6" stroke-width="0.6"/>
</svg>
